<svg xmlns="http://www.w3.org/2000/svg" viewBox="0 0 391.79 130.01"><defs><style>.cls-1{fill:#2d8bcb;}.cls-2{fill:#4b4b4e;}.cls-3{fill:#7bc249;}.cls-4{isolation:isolate;}</style></defs><g id="Layer_2" data-name="Layer 2"><g id="Layer_1-2" data-name="Layer 1"><polygon class="cls-1" points="0 31.76 0 94.78 18.11 84.32 18.11 42.22 54.54 21.19 54.54 0.28 0 31.76"/><polygon class="cls-2" points="93.36 87.95 56.72 109.1 19.84 87.81 1.73 98.27 56.72 130.01 111.47 98.41 93.36 87.95"/><polygon class="cls-3" points="58.42 0 58.42 20.91 95.34 42.22 95.34 84.6 113.45 95.06 113.45 31.76 58.42 0"/><g class="cls-4"><path class="cls-2" d="M148,80.29V60.8L143.77,77h-1.35L138.15,60.9V80.29h-4.32V45.13h3.46l3.12,10.55c1.55,5.22,2.71,10,2.71,10s1.1-4.52,2.81-10.19L149,45.13h3.36V80.29Z"/><path class="cls-2" d="M165.77,66.63V80.29h-4.42V66.63l-6.53-21.5h4.42l2.16,7.53C162.66,57,163.51,61,163.51,61s1.11-4.47,2.26-8.54l2.06-7.33h4.42Z"/><path class="cls-2" d="M195.81,80.29h-8c-2.61,0-3.57-1-3.57-3.31v-8.7h4.47v8.09h5.73V68.69l-9.59-11.21a2.9,2.9,0,0,1-.61-2.26V47.69a2.51,2.51,0,0,1,2.67-2.56h8.89c2.56,0,3.16,1.1,3.16,2.86v7.34H194.4V49.05h-5.73v6.22l9.15,10.15a4.22,4.22,0,0,1,1.1,2.56v9.35A2.77,2.77,0,0,1,195.81,80.29Z"/><path class="cls-2" d="M202.89,80.29V45.13h11v3.92h-6.48v11.3h6.23v3.92h-6.23v12.1h6.48v3.92Z"/><path class="cls-2" d="M227.7,80.29,223.18,61.7l.8-1.35h3.57V49.05h-5.78V80.29H217.3V45.13h10.85c3.42,0,3.92,1.4,3.92,3V61c0,1.51-.6,3.06-2.46,3.06H228.4l4.27,16.28Z"/><path class="cls-2" d="M245.78,80.29h-4.52l-6.63-35.16h4.47L243.47,71l4.37-25.82h4.47Z"/><path class="cls-2" d="M254.77,80.29V45.13h4.47V80.29Z"/><path class="cls-2" d="M274.61,80.29h-7.88c-2.77,0-3.52-.6-3.52-3.16V48.19c0-2.26.8-3.06,3.21-3.06h8c2.36,0,3.52.7,3.52,2.81v6.43h-4.52V49.05h-5.73V76.37h5.73V69.29h4.52v8.19C277.93,79.69,276.82,80.29,274.61,80.29Z"/><path class="cls-2" d="M281.89,80.29V45.13h10.95v3.92h-6.48v11.3h6.23v3.92h-6.23v12.1h6.48v3.92Z"/><path class="cls-2" d="M317.2,80.29h-7.88c-2.76,0-3.52-.6-3.52-3.16V48.19c0-2.26.8-3.06,3.22-3.06h8c2.36,0,3.52.7,3.52,2.81v6.43H316V49.05h-5.73V76.37H316V69.29h4.52v8.19C320.52,79.69,319.41,80.29,317.2,80.29Z"/><path class="cls-2" d="M324.49,80.29V45.13H329V76.37h6.48v3.92Z"/><path class="cls-2" d="M350.56,80.29H342a2.8,2.8,0,0,1-3.07-3V48.19c0-2.11.86-3.06,3.22-3.06h8.59c2.36,0,3.31.8,3.31,2.81V77.28C354,79.49,352.61,80.29,350.56,80.29Zm-1-31.24h-6.18V76.37h6.18Z"/><path class="cls-2" d="M369.64,80.29H361.1c-1.76,0-3.11-.9-3.11-3V45.13h4.47V76.37h6.18V45.13h4.47v32.1C373.11,78.68,372.55,80.29,369.64,80.29Z"/><path class="cls-2" d="M386.62,80.29h-9.55V45.13h9.45c3.41,0,5.27,2.21,5.27,5.37v25A5,5,0,0,1,386.62,80.29Zm.65-30A1.13,1.13,0,0,0,386,49.05h-4.48V76.37h4.22a1.4,1.4,0,0,0,1.51-1.25Z"/></g><path class="cls-2" d="M42.69,82.59V63.1L38.42,79.33H37.06L32.79,63.2V82.59H28.47V47.42h3.47L35.05,58c1.56,5.22,2.71,10,2.71,10s1.1-4.52,2.81-10.2l3.06-10.35H47V82.58H42.69Z"/><path class="cls-2" d="M62.88,82.59h-8c-2.61,0-3.57-1-3.57-3.32V70.58h4.47v8.09h5.73V71l-9.59-11.2a2.94,2.94,0,0,1-.6-2.26V50a2.5,2.5,0,0,1,2.66-2.56h8.89c2.56,0,3.17,1.1,3.17,2.86v7.33H61.48V51.34H55.75v6.23l9.14,10.15A4.22,4.22,0,0,1,66,70.28v9.34A2.79,2.79,0,0,1,62.88,82.59Z"/><path class="cls-2" d="M81.66,82.59H73.77c-2.76,0-3.52-.6-3.52-3.17V50.49c0-2.26.8-3.06,3.21-3.06h8c2.36,0,3.52.7,3.52,2.81v6.43H80.45V51.35H74.72V78.67h5.73V71.59H85v8.19C85,82,83.87,82.59,81.66,82.59Z"/></g></g></svg>