<?xml version="1.0" encoding="UTF-8" standalone="no"?><!DOCTYPE svg PUBLIC "-//W3C//DTD SVG 1.1//EN" "http://www.w3.org/Graphics/SVG/1.1/DTD/svg11.dtd"><svg width="100%" height="100%" viewBox="0 0 64 64" version="1.1" xmlns="http://www.w3.org/2000/svg" xmlns:xlink="http://www.w3.org/1999/xlink" xml:space="preserve" xmlns:serif="http://www.serif.com/" style="fill-rule:evenodd;clip-rule:evenodd;stroke-linejoin:round;stroke-miterlimit:1.41421;"><g><path d="M51.376,27.676l-19.376,-27.676l-19.376,27.676c-2.728,3.9 -4.171,8.477 -4.171,13.239c0,12.727 10.355,23.085 23.085,23.085l0.924,0c12.73,0 23.085,-10.358 23.085,-23.085c0,-4.762 -1.443,-9.339 -4.171,-13.239Zm-18.914,30.437l-0.924,0c-9.484,0 -17.198,-7.714 -17.198,-17.198c0,-3.546 1.074,-6.958 3.108,-9.866l14.552,-20.783l14.552,20.786c2.034,2.905 3.108,6.317 3.108,9.863c0,9.484 -7.714,17.198 -17.198,17.198Z" style="fill:#343f39;fill-rule:nonzero;"/><path d="M34.62,56.698c2.162,-0.891 2.543,-3.61 2.543,-3.61c-0.734,0.597 -1.303,0.761 -1.708,0.761c-0.498,0 -0.747,-0.249 -0.747,-0.249c1.688,-1.586 0,-6.394 0,-6.394c-0.902,3.361 -3.314,4.423 -4.763,4.423c-0.36,0 -0.66,-0.066 -0.863,-0.178c-1.023,-0.562 -1.177,-1.432 0.869,-3.273c2.046,-1.841 -1.125,-4.654 -1.125,-4.654c0.665,1.073 0.256,2.045 -0.409,2.557c-0.665,0.511 -1.893,0.92 -2.415,2.711c-0.523,1.79 2.005,3.734 0.727,4.118c-0.059,0.018 -0.117,0.026 -0.175,0.026c-1.205,0 -2.229,-3.633 -2.229,-3.633c-1.226,4.24 3.541,7.205 3.554,7.213c-3.775,-0.945 -6.823,-3.443 -7.018,-7.904c0.192,4.38 3.135,6.867 6.815,7.85c-4.41,-1.991 -6.316,-11.58 -6.326,-11.629c-0.317,0.998 -0.499,2.092 -0.499,3.32c0,-10.085 12.186,-11.177 12.186,-23.725c0,0 7.502,7.093 3.714,13.776c0,0 4.47,-1.91 3.788,-4.91c0,0 5.747,16.079 0.184,20.802c1.656,-1.406 2.309,-3.817 2.411,-6.511c-0.012,0.044 -1.804,6.679 -8.514,9.113Zm6.024,-2.536c0.003,-0.002 0.006,-0.005 0.009,-0.007c-0.003,0.002 -0.006,0.005 -0.009,0.007Zm0.012,-0.009c0.002,-0.002 0.004,-0.004 0.007,-0.006c-0.003,0.002 -0.005,0.004 -0.007,0.006Zm0.009,-0.008c0.003,-0.002 0.005,-0.004 0.007,-0.006c-0.002,0.002 -0.004,0.004 -0.007,0.006Zm0.01,-0.008c0.002,-0.002 0.005,-0.004 0.008,-0.007c-0.003,0.002 -0.006,0.005 -0.008,0.007Zm0.009,-0.008c0.013,-0.011 0.026,-0.022 0.039,-0.033c-0.013,0.011 -0.026,0.022 -0.039,0.033Zm-19.823,-5.518c0,-0.009 -0.001,-0.017 -0.001,-0.026c0,0.009 0.001,0.017 0.001,0.026Zm-0.001,-0.026c0,-0.009 -0.001,-0.017 -0.001,-0.026c0,0.008 0.001,0.017 0.001,0.026Zm-0.001,-0.027c-0.001,-0.009 -0.001,-0.017 -0.001,-0.026c0,0.008 0,0.018 0.001,0.026Zm-0.001,-0.027c0,-0.008 -0.001,-0.017 -0.001,-0.025c0,0.008 0.001,0.017 0.001,0.025Zm-0.001,-0.027c0,-0.009 -0.001,-0.016 -0.001,-0.025c0,0.008 0.001,0.017 0.001,0.025Zm-0.001,-0.027c0,-0.008 -0.001,-0.017 -0.001,-0.025c0,0.008 0.001,0.017 0.001,0.025Zm-0.001,-0.026c0,-0.009 0,-0.017 0,-0.026c0,0.009 0,0.017 0,0.026Zm0,-0.027c-0.001,-0.009 -0.001,-0.017 -0.001,-0.026c0,0.009 0,0.017 0.001,0.026Zm-0.001,-0.028c0,-0.008 0,-0.016 -0.001,-0.025c0.001,0.009 0.001,0.017 0.001,0.025Zm-0.001,-0.026c0,-0.009 0,-0.017 0,-0.026c0,0.009 0,0.017 0,0.026Zm0,-0.027c0,-0.009 0,-0.017 0,-0.026c0,0.009 0,0.017 0,0.026Zm0,-0.028c-0.001,-0.008 -0.001,-0.017 -0.001,-0.025c0,0.008 0,0.017 0.001,0.025Zm-0.001,-0.027c0,-0.008 0,-0.017 0,-0.025c0,0.009 0,0.017 0,0.025Zm0,-0.026c0,-0.009 0,-0.018 0,-0.027c0,0.009 0,0.018 0,0.027Zm0,-0.027c-0.001,-0.009 -0.001,-0.018 -0.001,-0.027c0,0.009 0,0.018 0.001,0.027Zm-0.001,-0.028c0,-0.008 0,-0.017 0,-0.026c0,0.009 0,0.017 0,0.026Zm0,-0.027c0,-0.009 0,-0.018 0,-0.027c0,0.009 0,0.018 0,0.027Z" style="fill:#737373;"/><path d="M40.653,54.155c0.001,-0.001 0.002,-0.002 0.003,-0.002c-0.001,0 -0.002,0.001 -0.003,0.002Zm0.01,-0.008c0.001,-0.001 0.001,-0.002 0.002,-0.002c-0.001,0 -0.001,0.001 -0.002,0.002Zm0.009,-0.008c0.001,-0.001 0.002,-0.001 0.003,-0.002c-0.001,0.001 -0.002,0.001 -0.003,0.002Zm0.011,-0.009c0,0 0,0 0.001,-0.001c0,0 -0.001,0.001 -0.001,0.001Zm0.04,-0.034l0,0l0,0Z" style="fill:#d5d3d3;fill-rule:nonzero;"/><path d="M34.62,56.698c6.71,-2.434 8.502,-9.069 8.514,-9.113c-0.102,2.694 -0.755,5.105 -2.411,6.511l0,0c-0.013,0.011 -0.026,0.022 -0.039,0.033c-0.001,0.001 -0.001,0.001 -0.001,0.001c-0.003,0.003 -0.006,0.005 -0.008,0.007c-0.001,0.001 -0.002,0.001 -0.003,0.002c-0.002,0.002 -0.004,0.004 -0.007,0.006c-0.001,0 -0.001,0.001 -0.002,0.002c-0.003,0.002 -0.005,0.004 -0.007,0.006c-0.001,0 -0.002,0.001 -0.003,0.002c-0.003,0.002 -0.006,0.005 -0.009,0.007c-1.542,1.255 -3.698,2.128 -6.024,2.536Z" style="fill:#656565;"/><path d="M20.861,48.612c0,0 0,0 0,-0.001c0,0.001 0,0.001 0,0.001Zm-0.001,-0.027l0,0l0,0Zm-0.001,-0.026c0,-0.001 0,-0.001 0,-0.001c0,0 0,0 0,0.001Zm-0.001,-0.027c0,-0.001 0,0 0,-0.001c0,0 0,0.001 0,0.001Zm-0.001,-0.026c0,-0.001 0,-0.001 0,-0.002c0,0.001 0,0.001 0,0.002Zm-0.001,-0.027c0,-0.001 0,-0.001 0,-0.002c0,0.001 0,0.001 0,0.002Zm-0.001,-0.027c0,-0.001 0,-0.001 0,-0.001c0,0 0,0 0,0.001Zm0,-0.027c0,0 0,-0.001 0,-0.001c0,0 0,0.001 0,0.001Zm-0.001,-0.027c0,0 0,-0.001 0,-0.002c0,0.001 0,0.002 0,0.002Zm-0.001,-0.027c0,0 0,-0.001 0,-0.001c0,0 0,0.001 0,0.001Zm0,-0.027c0,0 0,-0.001 0,-0.001c0,0 0,0.001 0,0.001Zm0,-0.027c0,0 0,-0.001 0,-0.002c0,0.001 0,0.002 0,0.002Zm-0.001,-0.027c0,0 0,-0.001 0,-0.002c0,0.001 0,0.002 0,0.002Zm0,-0.027c0,0 0,-0.001 0,-0.001c0,0 0,0.001 0,0.001Zm0,-0.028c0,0 0,0 0,0c0,0 0,0 0,0Zm-0.001,-0.027c0,0 0,0 0,-0.001c0,0.001 0,0.001 0,0.001Zm0,-0.027c0,0 0,-0.001 0,-0.001c0,0 0,0.001 0,0.001Z" style="fill:#d5d3d3;fill-rule:nonzero;"/><path d="M27.676,56.462c-3.68,-0.983 -6.623,-3.47 -6.815,-7.85c0,0 0,0 0,-0.001c0,-0.009 -0.001,-0.017 -0.001,-0.026l0,0c0,-0.009 -0.001,-0.018 -0.001,-0.026c0,-0.001 0,-0.001 0,-0.001c-0.001,-0.008 -0.001,-0.018 -0.001,-0.026c0,0 0,-0.001 0,-0.001c0,-0.008 -0.001,-0.017 -0.001,-0.025c0,-0.001 0,-0.001 0,-0.002c0,-0.008 -0.001,-0.017 -0.001,-0.025c0,-0.001 0,-0.001 0,-0.002c0,-0.008 -0.001,-0.017 -0.001,-0.025c0,-0.001 0,-0.001 0,-0.001c0,-0.009 0,-0.017 0,-0.026c0,0 0,-0.001 0,-0.001c-0.001,-0.009 -0.001,-0.017 -0.001,-0.026c0,0 0,-0.001 0,-0.002c0,-0.008 0,-0.016 -0.001,-0.025c0,0 0,-0.001 0,-0.001c0,-0.009 0,-0.017 0,-0.026c0,0 0,-0.001 0,-0.001c0,-0.009 0,-0.017 0,-0.026c0,0 0,-0.001 0,-0.002c-0.001,-0.008 -0.001,-0.017 -0.001,-0.025c0,0 0,-0.001 0,-0.002c0,-0.008 0,-0.016 0,-0.025c0,0 0,-0.001 0,-0.001c0,-0.009 0,-0.018 0,-0.027c0,0 0,0 0,0c-0.001,-0.009 -0.001,-0.018 -0.001,-0.027c0,0 0,0 0,-0.001c0,-0.009 0,-0.017 0,-0.026l0,-0.028c0,-1.228 0.182,-2.322 0.499,-3.32c0.01,0.049 1.916,9.638 6.326,11.629Z" style="fill:#656565;"/></g></svg>